<?xml version="1.0" encoding="iso-8859-1"?>
<!-- Generator: Adobe Illustrator 17.1.0, SVG Export Plug-In . SVG Version: 6.00 Build 0)  -->
<!DOCTYPE svg PUBLIC "-//W3C//DTD SVG 1.1//EN" "http://www.w3.org/Graphics/SVG/1.1/DTD/svg11.dtd">
<svg version="1.1" id="Capa_1" xmlns="http://www.w3.org/2000/svg" xmlns:xlink="http://www.w3.org/1999/xlink" x="0px" y="0px"
	 viewBox="0 0 295.531 295.531" style="enable-background:new 0 0 295.531 295.531;" xml:space="preserve">
<g>
	<path d="M113.063,186.34c-1.979-11.295-1.933-25.818-1.849-52.186c0.018-5.816,0.038-12.207,0.038-19.25l-0.285-21.125
		l20.213,5.613c0.514,0.113,3.738,0.783,8.253,0.783c14.1,0,24.819-5.805,31.863-17.623l5.488-9.021h-39.007
		c10.349-8,17.116-19.516,17.116-33.139C154.894,18.135,136.852,0,114.599,0C92.34,0,74.3,18.182,74.3,40.439
		c0,13.623,6.767,25.092,17.117,33.092H65.896H65.4h-0.766V73.18c-6,0.252-12,6.199-12,12.881v99.875
		c0,6.828,5.936,12.596,12.766,12.596h0.495c5.196,0,9.739-3.504,11.739-8.008v86.383c0,10.078,8.504,18.625,18.583,18.625h0.5
		c10.079,0,18.25-8.172,18.25-18.25c0,10.078,8.171,18.25,18.25,18.25h0.5c10.079,0,17.917-8.547,17.917-18.625v-41.523
		c-8-6.078-16.421-12.756-21.932-18.195C121.191,208.789,115.577,200.697,113.063,186.34z"/>
	<path d="M242.828,114.904c0,0-4.931,1.271-12.181,1.271c-12.752,0-32.681-3.93-45.607-25.619
		c-12.925,21.688-32.855,25.619-45.607,25.619c-7.252,0-12.181-1.271-12.181-1.271c0,67.715-1.859,75.387,13.856,90.897
		c12.672,12.508,43.932,33.355,43.932,33.355s31.26-20.848,43.933-33.355C244.688,190.291,242.828,182.619,242.828,114.904z
		 M223.957,179.207c-1.068,6.09-2.977,9.51-8.169,14.635c-6.325,6.242-19.289,15.568-26.454,20.572l-4.294,3l-4.295-3
		c-7.166-5.006-20.133-14.334-26.452-20.57c-5.194-5.129-7.102-8.549-8.169-14.637c-1.273-7.27-1.238-18.654-1.181-37.52
		l0.031-8.902l7.118-0.34c10.921-0.521,20.329-4.227,27.964-11.016l4.983-4.432l4.984,4.432
		c7.634,6.789,17.043,10.496,27.963,11.016l7.119,0.34l0.03,8.943C225.194,160.568,225.23,171.941,223.957,179.207z"/>
	<polygon points="176.635,174.531 176.635,190.531 192.635,190.531 192.635,174.531 208.635,174.531 208.635,158.531 
		192.635,158.531 192.635,141.531 176.635,141.531 176.635,158.531 159.635,158.531 159.635,174.531 	"/>
</g>
<g>
</g>
<g>
</g>
<g>
</g>
<g>
</g>
<g>
</g>
<g>
</g>
<g>
</g>
<g>
</g>
<g>
</g>
<g>
</g>
<g>
</g>
<g>
</g>
<g>
</g>
<g>
</g>
<g>
</g>
</svg>
