<?xml version="1.0" encoding="iso-8859-1"?>
<!-- Generator: Adobe Illustrator 19.0.0, SVG Export Plug-In . SVG Version: 6.00 Build 0)  -->
<svg version="1.1" id="Layer_1" xmlns="http://www.w3.org/2000/svg" xmlns:xlink="http://www.w3.org/1999/xlink" x="0px" y="0px"
	 viewBox="0 0 512.011 512.011" style="enable-background:new 0 0 512.011 512.011;" xml:space="preserve">
<g>
	<g>
		<path d="M486.022,78.86L259.27,129.442c-16.423,3.663-22.338,24.009-10.44,35.906l41,41l-55.163,55.163L100.418,127.264
			c-8.331-8.331-21.839-8.331-30.17,0l-64,64c-8.435,8.434-8.315,22.146,0.266,30.432L219.848,427.69
			c8.371,8.083,21.675,7.967,29.904-0.262l130.579-130.579l51.475,51.475c12.131,12.131,32.893,5.708,36.053-11.155l43.776-233.557
			C514.456,88.56,500.969,75.526,486.022,78.86z M433.374,289.553l-37.958-37.958c-8.331-8.331-21.839-8.331-30.17,0
			L234.405,382.435L51.77,206.082l33.564-33.564l134.248,134.248c8.331,8.331,21.839,8.331,30.17,0l85.333-85.333
			c8.331-8.331,8.331-21.839,0-30.17l-28.632-28.632l157.286-35.086L433.374,289.553z"/>
	</g>
</g>
<g>
</g>
<g>
</g>
<g>
</g>
<g>
</g>
<g>
</g>
<g>
</g>
<g>
</g>
<g>
</g>
<g>
</g>
<g>
</g>
<g>
</g>
<g>
</g>
<g>
</g>
<g>
</g>
<g>
</g>
</svg>
