<svg height="465pt" viewBox="-60 -14 465 465.3333" width="465pt" xmlns="http://www.w3.org/2000/svg"><path d="m-2.835938 93.234375v105.1875c.015626 99.257813 59.5625 188.816406 151.085938 227.222656l.0625.027344 24.492188 10.578125 21.320312-9.296875c89.816406-39.277344 147.886719-127.957031 147.996094-225.980469v-107.808594l-170-93.164062zm213.722657 17.203125v66.238281h66.242187c4.878906.117188 8.761719 4.117188 8.75 9v64.492188c.011719 4.878906-3.871094 8.882812-8.75 9h-66.242187v66.242187c-.121094 4.875-4.121094 8.765625-9.003907 8.746094h-64.488281c-4.882812.019531-8.878906-3.871094-8.996093-8.746094v-66.242187h-66.242188c-4.882812-.117188-8.769531-4.121094-8.75-9v-64.492188c-.019531-4.882812 3.867188-8.882812 8.75-9h66.242188v-66.238281c.117187-4.878906 4.113281-8.769531 8.996093-8.75h64.488281c4.882813-.019531 8.882813 3.871094 9.003907 8.75zm0 0"/><path d="m70.902344 194.175781v47.492188h66.492187c2.265625-.046875 4.457031.835937 6.058594 2.4375 1.605469 1.605469 2.484375 3.792969 2.441406 6.0625v66.492187h47.496094v-66.492187c-.050781-2.269531.828125-4.457031 2.433594-6.0625 1.601562-1.601563 3.792969-2.484375 6.058593-2.4375h66.496094v-47.492188h-66.496094c-2.265624.046875-4.457031-.835937-6.058593-2.4375-1.605469-1.605469-2.484375-3.792969-2.433594-6.0625v-66.492187h-47.496094v66.492187c.042969 2.269531-.835937 4.457031-2.441406 6.0625-1.601563 1.601563-3.792969 2.484375-6.058594 2.4375zm0 0"/></svg>