<?xml version="1.0" encoding="utf-8"?>
<!-- Generator: Adobe Illustrator 21.1.0, SVG Export Plug-In . SVG Version: 6.00 Build 0)  -->
<svg version="1.1" id="logo" xmlns="http://www.w3.org/2000/svg" xmlns:xlink="http://www.w3.org/1999/xlink" x="0px" y="0px"
	 viewBox="0 0 557 235" style="enable-background:new 0 0 557 235;" xml:space="preserve">
<style type="text/css">
	.st0{fill:#00A1DF;}
	.st1{fill:#005487;}
	.st2{fill:#7FA9C3;}
</style>
<g>
	<g>
		<path class="st0" d="M244.4,80.9c-18.6,1-33,16.9-32,35.6c1,18.6,16.9,33,35.6,32c2.7-0.1,5.3-0.6,7.8-1.3l0,0l2.5,4.8
			c1,2,3.4,2.7,5.4,1.7c2-1,2.7-3.4,1.7-5.4l-2.3-4.3c10.6-6.2,17.5-18,16.8-31.1C279.1,94.3,263.1,79.9,244.4,80.9z M259.5,136.9
			l-2.9-5.5c-1-2-3.4-2.7-5.4-1.7c-2,1-2.7,3.4-1.7,5.4l2.5,4.8l0,0c-1.4,0.3-2.9,0.5-4.4,0.6c-14.2,0.7-26.4-10.2-27.2-24.5
			c-0.7-14.2,10.2-26.4,24.5-27.2c14.2-0.7,26.4,10.2,27.2,24.5C272.6,123.2,267.4,132.1,259.5,136.9z"/>
		<path class="st0" d="M192.4,148.4c-2.2,0-4-1.8-4-4V85c0-2.2,1.8-4,4-4s4,1.8,4,4v59.4C196.4,146.6,194.6,148.4,192.4,148.4z"/>
		<path class="st1" d="M382.4,148.4c-2.2,0-4-1.8-4-4V85c0-2.2,1.8-4,4-4s4,1.8,4,4v59.4C386.4,146.6,384.6,148.4,382.4,148.4z"/>
		<path class="st1" d="M325.4,148.4C325.4,148.4,325.4,148.4,325.4,148.4c-1.5,0-2.9-0.8-3.5-2.1l-31.1-59.4c-1-2-0.3-4.4,1.7-5.4
			c2-1,4.4-0.3,5.4,1.7l27.6,52.7l28.1-52.7c1-1.9,3.5-2.7,5.4-1.6c1.9,1,2.7,3.5,1.6,5.4l-31.7,59.4
			C328.2,147.6,326.8,148.4,325.4,148.4z"/>
		<g>
			<path class="st1" d="M452.2,134.9H433c-2.2,0-4-1.8-4-4s1.8-4,4-4h19.3c2.2,0,4,1.8,4,4S454.5,134.9,452.2,134.9z"/>
			<path class="st1" d="M473.9,148.4c-1.4,0-2.8-0.8-3.5-2.1l-27.6-52.7l-28.1,52.7c-1,1.9-3.5,2.7-5.4,1.6c-1.9-1-2.7-3.5-1.6-5.4
				l31.7-59.4c0.7-1.3,2.1-2.2,3.5-2.1c1.5,0,2.8,0.8,3.5,2.1l31.1,59.4c1,2,0.3,4.4-1.7,5.4C475.2,148.2,474.5,148.4,473.9,148.4z"
				/>
		</g>
	</g>
	<g>
		<path class="st1" d="M474.5,90.9h-1.4v-8.6H470V81h7.7v1.2h-3.2V90.9z"/>
		<path class="st1" d="M484.2,88.6L484.2,88.6l2.9-7.6h2.1v9.8h-1.4v-8.2h0l-3.3,8.2h-0.9l-3.3-8.2h0v8.2h-1.3V81h2.1L484.2,88.6z"
			/>
	</g>
	<g>
		<path class="st1" d="M165.2,137.3h-19.6c-1.4,2.5-3,4.8-4.7,6.8h24.4c1.9,0,3.4-1.5,3.4-3.4v0
			C168.6,138.8,167.1,137.3,165.2,137.3z"/>
		<path class="st1" d="M165.2,124.3h-15c-0.5,2.4-1.1,4.6-1.9,6.8h16.8c1.9,0,3.4-1.5,3.4-3.4S167.1,124.3,165.2,124.3z"/>
		<path class="st1" d="M165.2,111.3h-14.1c0.1,1.1,0.1,2.1,0.1,3.2c0,1.2,0,2.4-0.1,3.6h14.1c1.9,0,3.4-1.5,3.4-3.4
			S167.1,111.3,165.2,111.3z"/>
		<path class="st1" d="M165.2,98.3h-16.7c0.8,2.2,1.4,4.5,1.8,6.8h14.9c1.9,0,3.4-1.5,3.4-3.4v0C168.6,99.9,167.1,98.3,165.2,98.3z"
			/>
		<path class="st1" d="M165.2,85.3h-24c1.7,2,3.3,4.3,4.6,6.8h19.4c1.9,0,3.4-1.5,3.4-3.4S167.1,85.3,165.2,85.3z"/>
		<path class="st0" d="M100.3,140.7L100.3,140.7c0-1.9,1.5-3.4,3.4-3.4H90.3c-1.9,0-3.4,1.5-3.4,3.4v0c0,1.9,1.5,3.4,3.4,3.4h13.4
			C101.9,144.1,100.3,142.5,100.3,140.7z"/>
		<path class="st2" d="M145.6,137.3h-41.9c-1.9,0-3.4,1.5-3.4,3.4v0c0,1.9,1.5,3.4,3.4,3.4h37.1C142.6,142,144.2,139.8,145.6,137.3z
			"/>
		<path class="st0" d="M90.8,128.4c-0.5-2.2,1.2-4.1,3.3-4.1H80.7c-1.9,0-3.4,1.5-3.4,3.4s1.5,3.4,3.4,3.4h13.5
			C92.6,131.1,91.1,130,90.8,128.4z"/>
		<path class="st2" d="M150.3,124.3H94.1c-2.1,0-3.8,1.9-3.3,4.1c0.3,1.6,1.8,2.7,3.4,2.7h54.1C149.2,128.9,149.8,126.6,150.3,124.3
			z"/>
		<path class="st0" d="M81.2,115.4c-0.5-2.2,1.2-4.1,3.3-4.1H71.1c-1.9,0-3.4,1.5-3.4,3.4s1.5,3.4,3.4,3.4h13.5
			C83,118.1,81.6,117,81.2,115.4z"/>
		<path class="st2" d="M81.2,115.4c0.3,1.6,1.8,2.7,3.4,2.7h66.4c0.1-1.2,0.1-2.4,0.1-3.6c0-1.1,0-2.2-0.1-3.2H84.6
			C82.5,111.3,80.8,113.2,81.2,115.4z"/>
		<path class="st0" d="M85.9,101.7c0-1.9,1.5-3.4,3.4-3.4H75.9c-1.9,0-3.4,1.5-3.4,3.4v0c0,1.9,1.5,3.4,3.4,3.4h13.4
			C87.4,105.1,85.9,103.6,85.9,101.7z"/>
		<path class="st2" d="M148.5,98.3H89.3c-1.9,0-3.4,1.5-3.4,3.4c0,1.9,1.5,3.4,3.4,3.4h61C149.9,102.8,149.3,100.5,148.5,98.3z"/>
		<path class="st0" d="M110.6,89.5c-0.5-2.2,1.2-4.1,3.3-4.1h-13.4c-1.9,0-3.4,1.5-3.4,3.4s1.5,3.4,3.4,3.4h13.5
			C112.5,92.2,111,91.1,110.6,89.5z"/>
		<path class="st2" d="M141.2,85.3H114c-2.1,0-3.8,1.9-3.3,4.1c0.3,1.6,1.8,2.7,3.4,2.7h31.7C144.5,89.7,142.9,87.4,141.2,85.3z"/>
	</g>
</g>
</svg>
